<svg width="24" height="24" viewBox="0 0 24 24" fill="none" xmlns="http://www.w3.org/2000/svg">
<path d="M18.5964 10.7259V15.1526C18.5964 15.4404 18.5854 15.7171 18.5524 15.9827C18.2991 18.9707 16.5483 20.4537 13.3219 20.4537H12.8814C12.6062 20.4537 12.3419 20.5865 12.1767 20.8078L10.8553 22.5785C10.2717 23.3643 9.32471 23.3643 8.7411 22.5785L7.41971 20.8078C7.27656 20.6197 6.95724 20.4537 6.71499 20.4537H6.27453C2.76185 20.4537 1 19.5794 1 15.1526V10.7259C1 7.48326 2.48657 5.72362 5.44867 5.46908C5.71294 5.43588 5.98823 5.4248 6.27453 5.4248H13.3219C16.8346 5.4248 18.5964 7.19552 18.5964 10.7259Z" stroke="white" stroke-width="1.5" stroke-miterlimit="10" stroke-linecap="round" stroke-linejoin="round"/>
<path d="M23.0001 6.29913V10.7259C23.0001 13.9796 21.5136 15.7282 18.5515 15.9827C18.5845 15.7171 18.5955 15.4404 18.5955 15.1527V10.7259C18.5955 7.19556 16.8337 5.42483 13.321 5.42483H6.27362C5.98732 5.42483 5.71203 5.43591 5.44775 5.46911C5.70102 2.4921 7.45185 0.998047 10.6782 0.998047H17.7256C21.2383 0.998047 23.0001 2.76877 23.0001 6.29913Z" stroke="white" stroke-width="1.5" stroke-miterlimit="10" stroke-linecap="round" stroke-linejoin="round"/>
<path d="M13.6589 13.4484H13.6688" stroke="white" stroke-width="2" stroke-linecap="round" stroke-linejoin="round"/>
<path d="M9.80346 13.4484H9.81337" stroke="white" stroke-width="2" stroke-linecap="round" stroke-linejoin="round"/>
<path d="M5.94994 13.4484H5.95985" stroke="white" stroke-width="2" stroke-linecap="round" stroke-linejoin="round"/>
</svg>
