<svg width="8" height="10" viewBox="0 0 8 10" fill="none" xmlns="http://www.w3.org/2000/svg">
<path d="M7.79688 4.20117H7.8125C7.9375 4.32617 8 4.48242 8 4.66992C8 4.84701 7.9375 5.00326 7.8125 5.13867C7.67708 5.26367 7.51562 5.32617 7.32812 5.32617C7.15104 5.32617 6.99479 5.26367 6.85938 5.13867L4 2.2793L1.14062 5.13867C1.00521 5.26367 0.84375 5.32617 0.65625 5.32617C0.479167 5.32617 0.328125 5.26367 0.203125 5.13867C0.0677083 5.00326 0 4.84701 0 4.66992C0 4.48242 0.0677083 4.32617 0.203125 4.20117L3.53125 0.857422C3.65625 0.732422 3.8125 0.669922 4 0.669922C4.1875 0.669922 4.34375 0.732422 4.46875 0.857422L7.79688 4.20117ZM7.79688 8.85742H7.8125C7.9375 8.99284 8 9.1543 8 9.3418C8 9.51888 7.9375 9.66992 7.8125 9.79492C7.67708 9.93034 7.51562 9.99805 7.32812 9.99805C7.15104 9.99805 6.99479 9.93034 6.85938 9.79492L4 6.93555L1.14062 9.79492C1.00521 9.93034 0.84375 9.99805 0.65625 9.99805C0.479167 9.99805 0.328125 9.93034 0.203125 9.79492C0.0677083 9.66992 0 9.51888 0 9.3418C0 9.1543 0.0677083 8.99284 0.203125 8.85742L3.53125 5.5293C3.65625 5.39388 3.8125 5.32617 4 5.32617C4.1875 5.32617 4.34375 5.39388 4.46875 5.5293L7.79688 8.85742Z" fill="white"/>
</svg>
