<svg width="14" height="12" viewBox="0 0 14 12" fill="none" xmlns="http://www.w3.org/2000/svg">
<path d="M13.706 2.30859C13.5117 1.85176 13.2285 1.43891 12.873 1.09452C12.1514 0.392385 11.1878 0 10.185 0C9.18226 0 8.21863 0.392385 7.49705 1.09452L7.00005 1.58156L6.50306 1.09452C5.78148 0.392385 4.81784 0 3.81508 0C2.81232 0 1.84869 0.392385 1.12711 1.09452C0.771646 1.43891 0.488383 1.85176 0.294113 2.30859C0.100036 2.76838 0 3.26294 0 3.76265C0 4.26235 0.100036 4.75692 0.294113 5.21671C0.486502 5.67459 0.770012 6.0878 1.12711 6.43077L6.60806 11.8376C6.66002 11.8863 6.71903 11.9268 6.78305 11.9576C6.92229 12.0141 7.07782 12.0141 7.21705 11.9576C7.28108 11.9268 7.34008 11.8863 7.39205 11.8376L12.873 6.43077C13.2301 6.08604 13.5141 5.67183 13.7078 5.21322C13.9015 4.75461 14.0009 4.26113 14 3.76265C14.0012 3.26283 13.9011 2.76804 13.706 2.30859Z" fill="white"/>
</svg>
