<svg width="142" height="44" viewBox="0 0 142 44" fill="none" xmlns="http://www.w3.org/2000/svg">
<path d="M120.432 23.9759L108.141 10.3384C107.993 10.1741 107.811 10.0438 107.607 9.95664C107.404 9.86945 107.184 9.82737 106.963 9.83332H98.7128C98.5862 9.83385 98.4624 9.87048 98.3559 9.93892C98.2495 10.0074 98.1648 10.1047 98.1117 10.2197C98.0587 10.3346 98.0395 10.4622 98.0565 10.5876C98.0735 10.7131 98.126 10.831 98.2077 10.9277L109.993 23.9759L93.746 42.0918C93.6643 42.1885 93.6119 42.3065 93.5949 42.4319C93.5779 42.5573 93.597 42.6849 93.6501 42.7999C93.7031 42.9148 93.7878 43.0122 93.8943 43.0806C94.0008 43.149 94.1246 43.1857 94.2511 43.1862H102.669C103.113 43.1799 103.537 42.9983 103.848 42.6811L120.432 23.9927V23.9759Z" fill="#2B38D1"/>
<path d="M141.166 0.59846C141.112 0.419508 141 0.263634 140.847 0.155415C140.695 0.0471949 140.511 -0.0072135 140.324 0.000768074H131.99C131.741 0.00337252 131.496 0.0553151 131.267 0.153582C131.039 0.251848 130.833 0.394482 130.66 0.573205L117.443 15.3976L122.949 21.5177L140.879 1.38135C141.006 1.29989 141.102 1.17931 141.154 1.03799C141.206 0.896658 141.21 0.742316 141.166 0.59846Z" fill="#2B38D1"/>
<path d="M123.058 26.375L117.561 32.5792L119.245 34.507L122.831 38.6403C123.003 38.8169 123.209 38.9576 123.435 39.0544C123.662 39.1512 123.906 39.2022 124.153 39.2043H132.571C132.734 39.2087 132.894 39.1657 133.033 39.0806C133.172 38.9954 133.284 38.8717 133.354 38.7245C133.424 38.5677 133.45 38.3947 133.43 38.224C133.409 38.0534 133.342 37.8917 133.236 37.7564L123.058 26.375Z" fill="#2B38D1"/>
<path d="M78.2144 13.8738V34.5826C78.1872 34.7739 78.0986 34.9512 77.962 35.0878C77.8253 35.2244 77.6481 35.313 77.4568 35.3402H72.9951C72.7641 35.3145 72.5376 35.2578 72.3217 35.1719C72.2135 35.1392 72.1131 35.0851 72.0263 35.0128C71.9396 34.9405 71.8682 34.8514 71.8166 34.751L63.9035 23.639C63.8193 23.4706 63.6509 23.3864 63.5667 23.4706C63.4826 23.5548 63.3984 23.639 63.3984 23.8073V34.5826C63.3711 34.7739 63.2826 34.9512 63.1459 35.0878C63.0093 35.2244 62.832 35.313 62.6407 35.3402H58.0949C57.9036 35.313 57.7264 35.2244 57.5897 35.0878C57.4531 34.9512 57.3645 34.7739 57.3373 34.5826V13.8738C57.3645 13.6826 57.4531 13.5053 57.5897 13.3687C57.7264 13.232 57.9036 13.1434 58.0949 13.1162H62.6407C62.8717 13.142 63.0982 13.1986 63.3142 13.2846C63.4223 13.3173 63.5228 13.3714 63.6095 13.4437C63.6963 13.516 63.7676 13.605 63.8193 13.7055L71.7324 24.8175C71.7718 24.8948 71.8322 24.9595 71.9066 25.0041C71.9811 25.0488 72.0665 25.0716 72.1533 25.07C72.3217 25.07 72.3217 24.9017 72.3217 24.7333V13.8738C72.3489 13.6826 72.4375 13.5053 72.5741 13.3687C72.7107 13.232 72.888 13.1434 73.0793 13.1162H77.5409C77.6378 13.1223 77.7324 13.1478 77.8191 13.1912C77.9059 13.2346 77.9831 13.295 78.046 13.3688C78.2144 13.5371 78.2144 13.6213 78.2144 13.8738Z" fill="#2B38D1"/>
<path d="M86.7169 19.3625V20.6084C86.723 20.7052 86.7485 20.7998 86.7919 20.8866C86.8353 20.9734 86.8957 21.0505 86.9694 21.1135C87.0329 21.1861 87.1103 21.2452 87.1971 21.2871C87.2839 21.3291 87.3783 21.3531 87.4745 21.3576H95.7244C95.9145 21.3844 96.0908 21.4718 96.2273 21.6067C96.3638 21.7417 96.4531 21.9171 96.482 22.1068V26.2654C96.4757 26.361 96.4501 26.4543 96.4067 26.5397C96.3633 26.6251 96.303 26.7007 96.2295 26.7621C96.1665 26.8359 96.0893 26.8963 96.0026 26.9397C95.9158 26.983 95.8212 27.0085 95.7244 27.0147H87.4745C87.2809 27.0275 87.0998 27.1151 86.9694 27.2588C86.8957 27.3218 86.8353 27.3989 86.7919 27.4857C86.7485 27.5725 86.723 27.6671 86.7169 27.7639V28.9256C86.723 29.0224 86.7485 29.117 86.7919 29.2038C86.8353 29.2905 86.8957 29.3677 86.9694 29.4307C87.0998 29.5744 87.2809 29.6619 87.4745 29.6748H96.9029C96.9997 29.6809 97.0943 29.7064 97.1811 29.7498C97.2679 29.7932 97.345 29.8536 97.408 29.9273C97.4816 29.9887 97.5419 30.0644 97.5853 30.1498C97.6287 30.2351 97.6543 30.3284 97.6606 30.424V34.6331C97.6317 34.8229 97.5423 34.9983 97.4058 35.1332C97.2694 35.2682 97.093 35.3556 96.9029 35.3823H81.4976C81.3076 35.3556 81.1312 35.2682 80.9947 35.1332C80.8582 34.9983 80.7689 34.8229 80.74 34.6331V13.8654C80.7461 13.7686 80.7716 13.674 80.815 13.5872C80.8584 13.5005 80.9188 13.4233 80.9925 13.3603C81.0559 13.2877 81.1334 13.2287 81.2202 13.1867C81.307 13.1448 81.4013 13.1208 81.4976 13.1162H96.9029C96.9992 13.1208 97.0936 13.1448 97.1804 13.1867C97.2672 13.2287 97.3446 13.2877 97.408 13.3603C97.4818 13.4233 97.5422 13.5005 97.5856 13.5872C97.6289 13.674 97.6545 13.7686 97.6606 13.8654V17.9398C97.6548 18.0355 97.6294 18.129 97.5859 18.2144C97.5425 18.2999 97.4819 18.3755 97.408 18.4365C97.345 18.5103 97.2679 18.5707 97.1811 18.6141C97.0943 18.6574 96.9997 18.6829 96.9029 18.6891H87.4745C87.3777 18.6952 87.2831 18.7207 87.1964 18.7641C87.1096 18.8074 87.0324 18.8678 86.9694 18.9416C86.8011 19.1015 86.7169 19.1015 86.7169 19.3625Z" fill="#2B38D1"/>
<path d="M54.8119 13.8317C54.8154 13.7368 54.7993 13.6422 54.7646 13.5538C54.7299 13.4654 54.6773 13.3851 54.6101 13.3179C54.543 13.2507 54.4627 13.1982 54.3743 13.1635C54.2859 13.1287 54.1912 13.1127 54.0963 13.1162H49.5926C49.4983 13.1138 49.4046 13.1308 49.3172 13.166C49.2298 13.2013 49.1505 13.254 49.0843 13.3211C49.018 13.3881 48.9662 13.468 48.932 13.5558C48.8978 13.6437 48.882 13.7376 48.8854 13.8317V24.4639V34.6163C48.8809 34.7119 48.8958 34.8075 48.9293 34.8972C48.9628 34.9869 49.0141 35.0689 49.0803 35.1382C49.1464 35.2075 49.2259 35.2626 49.314 35.3002C49.402 35.3378 49.4968 35.3572 49.5926 35.3571H54.0879C54.1831 35.3575 54.2775 35.3391 54.3656 35.303C54.4537 35.2669 54.5338 35.2138 54.6014 35.1466C54.6674 35.0787 54.7192 34.9983 54.7539 34.9101C54.7886 34.822 54.8054 34.7278 54.8034 34.6331V24.4639L54.8119 13.8317Z" fill="#212529"/>
<path d="M46.3684 13.8738V34.5826C46.3412 34.7739 46.2526 34.9512 46.1159 35.0878C45.9793 35.2244 45.802 35.313 45.6108 35.3402H41.0649C40.8736 35.313 40.6964 35.2244 40.5597 35.0878C40.4231 34.9512 40.3345 34.7739 40.3073 34.5826V24.8175C40.3073 24.6491 40.2231 24.4808 40.0547 24.4808C39.968 24.4792 39.8825 24.502 39.8081 24.5467C39.7336 24.5913 39.6733 24.656 39.6338 24.7333L34.4987 32.9832C34.4399 33.0616 34.3637 33.1252 34.276 33.169C34.1883 33.2129 34.0917 33.2357 33.9936 33.2357C33.8956 33.2357 33.799 33.2129 33.7113 33.169C33.6236 33.1252 33.5474 33.0616 33.4886 32.9832L28.3535 24.7333C28.314 24.656 28.2536 24.5913 28.1792 24.5467C28.1048 24.502 28.0193 24.4792 27.9325 24.4808C27.7642 24.4808 27.68 24.6491 27.68 24.8175V34.5826C27.6528 34.7739 27.5642 34.9512 27.4275 35.0878C27.2909 35.2244 27.1136 35.313 26.9224 35.3402H22.3765C22.1852 35.313 22.008 35.2244 21.8713 35.0878C21.7347 34.9512 21.6461 34.7739 21.6189 34.5826V13.8738C21.6461 13.6826 21.7347 13.5053 21.8713 13.3687C22.008 13.232 22.1852 13.1434 22.3765 13.1162H26.5856C26.8166 13.142 27.0431 13.1986 27.2591 13.2846C27.3672 13.3173 27.4676 13.3714 27.5544 13.4437C27.6412 13.516 27.7125 13.605 27.7642 13.7055L33.6569 22.292C33.6982 22.3676 33.7591 22.4306 33.8332 22.4744C33.9072 22.5183 33.9917 22.5415 34.0778 22.5415C34.1639 22.5415 34.2484 22.5183 34.3225 22.4744C34.3965 22.4306 34.4574 22.3676 34.4987 22.292L40.3325 13.7055C40.3842 13.605 40.4555 13.516 40.5423 13.4437C40.6291 13.3714 40.7295 13.3173 40.8376 13.2846C41.0504 13.1892 41.2784 13.1322 41.5111 13.1162H45.7202C45.817 13.1223 45.9116 13.1478 45.9984 13.1912C46.0851 13.2346 46.1623 13.295 46.2253 13.3688C46.3353 13.5129 46.3864 13.6934 46.3684 13.8738Z" fill="#212529"/>
<path d="M0.00100161 13.8318C-0.00135936 13.7363 0.0161259 13.6414 0.0523517 13.553C0.0885775 13.4646 0.142755 13.3847 0.211456 13.3183C0.277275 13.2518 0.356086 13.1995 0.442982 13.1647C0.529879 13.13 0.623 13.1135 0.716549 13.1163H5.21186C5.30541 13.1135 5.39853 13.13 5.48543 13.1647C5.57233 13.1995 5.65114 13.2518 5.71696 13.3183C5.78566 13.3847 5.83983 13.4646 5.87606 13.553C5.91229 13.6414 5.92977 13.7363 5.92741 13.8318V25.9456C5.9048 26.6078 6.03139 27.2667 6.29781 27.8734C6.51546 28.3394 6.83475 28.7507 7.23223 29.0772C7.58652 29.3536 7.98897 29.5619 8.4192 29.6917C9.16141 29.9272 9.95832 29.9272 10.7005 29.6917C11.1273 29.5662 11.525 29.3573 11.8707 29.0772C12.2604 28.7474 12.5736 28.3366 12.7882 27.8734C13.0618 27.2687 13.1915 26.6088 13.1671 25.9456V13.8318C13.1647 13.7363 13.1822 13.6414 13.2184 13.553C13.2546 13.4646 13.3088 13.3847 13.3775 13.3183C13.4433 13.2518 13.5221 13.1995 13.609 13.1647C13.6959 13.13 13.7891 13.1135 13.8826 13.1163H18.3779C18.5663 13.1145 18.7478 13.1871 18.883 13.3183C18.9501 13.3859 19.0033 13.466 19.0394 13.5541C19.0755 13.6422 19.0939 13.7366 19.0935 13.8318V25.9456C19.109 27.2641 18.8807 28.5741 18.42 29.8096C17.9958 30.9233 17.3385 31.9336 16.4922 32.7728C15.6266 33.6061 14.5975 34.2511 13.4701 34.6669C12.2213 35.1323 10.8966 35.3607 9.56407 35.3403C8.22872 35.3613 6.90117 35.1329 5.64961 34.6669C4.52219 34.2511 3.49317 33.6061 2.62748 32.7728C1.78135 31.9318 1.12166 30.9222 0.691293 29.8096C0.216944 28.5774 -0.0173622 27.2658 0.00100161 25.9456V13.8318Z" fill="#212529"/>
</svg>
