<svg width="20" height="14" viewBox="0 0 20 14" fill="none" xmlns="http://www.w3.org/2000/svg">
<path d="M1 8H19C19.2812 8 19.5156 7.90625 19.7031 7.71875C19.9062 7.51562 20.0078 7.27344 20.0078 6.99219C20.0078 6.72656 19.9062 6.5 19.7031 6.3125C19.5156 6.10938 19.2812 6.00781 19 6.00781H1C0.71875 6.00781 0.476562 6.10938 0.273438 6.3125C0.0859375 6.5 -0.0078125 6.72656 -0.0078125 6.99219C-0.0078125 7.27344 0.0859375 7.51562 0.273438 7.71875C0.476562 7.90625 0.71875 8 1 8ZM1 2H19C19.2812 2 19.5156 1.90625 19.7031 1.71875C19.9062 1.51563 20.0078 1.27344 20.0078 0.992188C20.0078 0.726562 19.9062 0.5 19.7031 0.3125C19.5156 0.109375 19.2812 0.0078125 19 0.0078125H1C0.71875 0.0078125 0.476562 0.109375 0.273438 0.3125C0.0859375 0.5 -0.0078125 0.726562 -0.0078125 0.992188C-0.0078125 1.27344 0.0859375 1.51563 0.273438 1.71875C0.476562 1.90625 0.71875 2 1 2ZM1 14H19C19.2812 14 19.5156 13.9062 19.7031 13.7188C19.9062 13.5156 20.0078 13.2734 20.0078 12.9922C20.0078 12.7266 19.9062 12.5 19.7031 12.3125C19.5156 12.1094 19.2812 12.0078 19 12.0078H1C0.71875 12.0078 0.476562 12.1094 0.273438 12.3125C0.0859375 12.5 -0.0078125 12.7266 -0.0078125 12.9922C-0.0078125 13.2734 0.0859375 13.5156 0.273438 13.7188C0.476562 13.9062 0.71875 14 1 14Z" fill="#111111"/>
</svg>
