<svg width="64" height="12" viewBox="0 0 64 12" fill="none" xmlns="http://www.w3.org/2000/svg">
<path d="M12.3204 4.35547C12.3595 4.47266 12.3634 4.59375 12.3322 4.71875C12.3009 4.84375 12.2345 4.94922 12.1329 5.03516L9.51965 7.33203L10.2931 10.7305C10.3165 10.8555 10.3048 10.9766 10.2579 11.0938C10.2189 11.2109 10.1486 11.3086 10.047 11.3867C9.93762 11.4648 9.82043 11.5039 9.69543 11.5039C9.57043 11.5117 9.45325 11.4844 9.34387 11.4219L6.35559 9.62891L3.36731 11.4219C3.32043 11.4453 3.26575 11.4648 3.20325 11.4805C3.14856 11.4961 3.09387 11.5039 3.03918 11.5039C2.97668 11.5039 2.91028 11.4922 2.83997 11.4688C2.77747 11.4531 2.71887 11.4258 2.66418 11.3867C2.56262 11.3086 2.4884 11.2109 2.44153 11.0938C2.40247 10.9766 2.39465 10.8555 2.41809 10.7305L3.19153 7.33203L0.578247 5.03516C0.476685 4.94922 0.410278 4.84375 0.379028 4.71875C0.347778 4.59375 0.351685 4.47266 0.390747 4.35547C0.42981 4.23047 0.496216 4.12891 0.589966 4.05078C0.691528 3.97266 0.80481 3.92578 0.92981 3.91016L4.39856 3.60547L5.76965 0.394531C5.81653 0.277344 5.89465 0.183594 6.00403 0.113281C6.1134 0.0429688 6.23059 0.0078125 6.35559 0.0078125C6.48059 0.0078125 6.59778 0.0429688 6.70715 0.113281C6.81653 0.183594 6.89465 0.277344 6.94153 0.394531L8.31262 3.60547L11.7814 3.91016C11.9064 3.92578 12.0157 3.97266 12.1095 4.05078C12.2111 4.12891 12.2814 4.23047 12.3204 4.35547ZM25.0404 4.35547C25.0795 4.47266 25.0834 4.59375 25.0522 4.71875C25.0209 4.84375 24.9545 4.94922 24.8529 5.03516L22.2397 7.33203L23.0131 10.7305C23.0365 10.8555 23.0248 10.9766 22.9779 11.0938C22.9389 11.2109 22.8686 11.3086 22.767 11.3867C22.6576 11.4648 22.5404 11.5039 22.4154 11.5039C22.2904 11.5117 22.1732 11.4844 22.0639 11.4219L19.0756 9.62891L16.0873 11.4219C16.0404 11.4453 15.9857 11.4648 15.9232 11.4805C15.8686 11.4961 15.8139 11.5039 15.7592 11.5039C15.6967 11.5039 15.6303 11.4922 15.56 11.4688C15.4975 11.4531 15.4389 11.4258 15.3842 11.3867C15.2826 11.3086 15.2084 11.2109 15.1615 11.0938C15.1225 10.9766 15.1147 10.8555 15.1381 10.7305L15.9115 7.33203L13.2982 5.03516C13.1967 4.94922 13.1303 4.84375 13.099 4.71875C13.0678 4.59375 13.0717 4.47266 13.1107 4.35547C13.1498 4.23047 13.2162 4.12891 13.31 4.05078C13.4115 3.97266 13.5248 3.92578 13.6498 3.91016L17.1186 3.60547L18.4897 0.394531C18.5365 0.277344 18.6147 0.183594 18.724 0.113281C18.8334 0.0429688 18.9506 0.0078125 19.0756 0.0078125C19.2006 0.0078125 19.3178 0.0429688 19.4272 0.113281C19.5365 0.183594 19.6147 0.277344 19.6615 0.394531L21.0326 3.60547L24.5014 3.91016C24.6264 3.92578 24.7357 3.97266 24.8295 4.05078C24.9311 4.12891 25.0014 4.23047 25.0404 4.35547ZM37.7604 4.35547C37.7995 4.47266 37.8034 4.59375 37.7722 4.71875C37.7409 4.84375 37.6745 4.94922 37.5729 5.03516L34.9597 7.33203L35.7331 10.7305C35.7565 10.8555 35.7448 10.9766 35.6979 11.0938C35.6589 11.2109 35.5886 11.3086 35.487 11.3867C35.3776 11.4648 35.2604 11.5039 35.1354 11.5039C35.0104 11.5117 34.8932 11.4844 34.7839 11.4219L31.7956 9.62891L28.8073 11.4219C28.7604 11.4453 28.7057 11.4648 28.6432 11.4805C28.5886 11.4961 28.5339 11.5039 28.4792 11.5039C28.4167 11.5039 28.3503 11.4922 28.28 11.4688C28.2175 11.4531 28.1589 11.4258 28.1042 11.3867C28.0026 11.3086 27.9284 11.2109 27.8815 11.0938C27.8425 10.9766 27.8347 10.8555 27.8581 10.7305L28.6315 7.33203L26.0182 5.03516C25.9167 4.94922 25.8503 4.84375 25.819 4.71875C25.7878 4.59375 25.7917 4.47266 25.8307 4.35547C25.8698 4.23047 25.9362 4.12891 26.03 4.05078C26.1315 3.97266 26.2448 3.92578 26.3698 3.91016L29.8386 3.60547L31.2097 0.394531C31.2565 0.277344 31.3347 0.183594 31.444 0.113281C31.5534 0.0429688 31.6706 0.0078125 31.7956 0.0078125C31.9206 0.0078125 32.0378 0.0429688 32.1472 0.113281C32.2565 0.183594 32.3347 0.277344 32.3815 0.394531L33.7526 3.60547L37.2214 3.91016C37.3464 3.92578 37.4557 3.97266 37.5495 4.05078C37.6511 4.12891 37.7214 4.23047 37.7604 4.35547ZM50.4804 4.35547C50.5195 4.47266 50.5234 4.59375 50.4922 4.71875C50.4609 4.84375 50.3945 4.94922 50.2929 5.03516L47.6797 7.33203L48.4531 10.7305C48.4765 10.8555 48.4648 10.9766 48.4179 11.0938C48.3789 11.2109 48.3086 11.3086 48.207 11.3867C48.0976 11.4648 47.9804 11.5039 47.8554 11.5039C47.7304 11.5117 47.6132 11.4844 47.5039 11.4219L44.5156 9.62891L41.5273 11.4219C41.4804 11.4453 41.4257 11.4648 41.3632 11.4805C41.3086 11.4961 41.2539 11.5039 41.1992 11.5039C41.1367 11.5039 41.0703 11.4922 41 11.4688C40.9375 11.4531 40.8789 11.4258 40.8242 11.3867C40.7226 11.3086 40.6484 11.2109 40.6015 11.0938C40.5625 10.9766 40.5547 10.8555 40.5781 10.7305L41.3515 7.33203L38.7382 5.03516C38.6367 4.94922 38.5703 4.84375 38.539 4.71875C38.5078 4.59375 38.5117 4.47266 38.5507 4.35547C38.5898 4.23047 38.6562 4.12891 38.75 4.05078C38.8515 3.97266 38.9648 3.92578 39.0898 3.91016L42.5586 3.60547L43.9297 0.394531C43.9765 0.277344 44.0547 0.183594 44.164 0.113281C44.2734 0.0429688 44.3906 0.0078125 44.5156 0.0078125C44.6406 0.0078125 44.7578 0.0429688 44.8672 0.113281C44.9765 0.183594 45.0547 0.277344 45.1015 0.394531L46.4726 3.60547L49.9414 3.91016C50.0664 3.92578 50.1757 3.97266 50.2695 4.05078C50.3711 4.12891 50.4414 4.23047 50.4804 4.35547ZM63.2004 4.35547C63.2395 4.47266 63.2434 4.59375 63.2122 4.71875C63.1809 4.84375 63.1145 4.94922 63.0129 5.03516L60.3997 7.33203L61.1731 10.7305C61.1965 10.8555 61.1848 10.9766 61.1379 11.0938C61.0989 11.2109 61.0286 11.3086 60.927 11.3867C60.8176 11.4648 60.7004 11.5039 60.5754 11.5039C60.4504 11.5117 60.3332 11.4844 60.2239 11.4219L57.2356 9.62891L54.2473 11.4219C54.2004 11.4453 54.1457 11.4648 54.0832 11.4805C54.0286 11.4961 53.9739 11.5039 53.9192 11.5039C53.8567 11.5039 53.7903 11.4922 53.72 11.4688C53.6575 11.4531 53.5989 11.4258 53.5442 11.3867C53.4426 11.3086 53.3684 11.2109 53.3215 11.0938C53.2825 10.9766 53.2747 10.8555 53.2981 10.7305L54.0715 7.33203L51.4582 5.03516C51.3567 4.94922 51.2903 4.84375 51.259 4.71875C51.2278 4.59375 51.2317 4.47266 51.2707 4.35547C51.3098 4.23047 51.3762 4.12891 51.47 4.05078C51.5715 3.97266 51.6848 3.92578 51.8098 3.91016L55.2786 3.60547L56.6497 0.394531C56.6965 0.277344 56.7747 0.183594 56.884 0.113281C56.9934 0.0429688 57.1106 0.0078125 57.2356 0.0078125C57.3606 0.0078125 57.4778 0.0429688 57.5872 0.113281C57.6965 0.183594 57.7747 0.277344 57.8215 0.394531L59.1926 3.60547L62.6614 3.91016C62.7864 3.92578 62.8957 3.97266 62.9895 4.05078C63.0911 4.12891 63.1614 4.23047 63.2004 4.35547Z" fill="#FFB800"/>
</svg>
